<svg xmlns="http://www.w3.org/2000/svg" width="1200" height="720" viewBox="0 0 1200 720" role="img">
<style>text{font-family:Inter,Segoe UI,Arial,sans-serif}.mono{font-family:Consolas,Menlo,monospace}</style>

    <rect width="1200" height="720" rx="24" fill="#0b0f14"/>
    <rect x="24" y="24" width="1152" height="672" rx="18" fill="#101317" stroke="#2b333d"/>
    <rect x="24" y="24" width="1152" height="46" rx="18" fill="#171b21"/>
    <circle cx="52" cy="47" r="6" fill="#e87855"/><circle cx="72" cy="47" r="6" fill="#e5b567"/><circle cx="92" cy="47" r="6" fill="#78d39f"/>
    <text x="120" y="52" fill="#f2f4f7" font-size="14" font-weight="700">Visual Studio Code recomposition - HomenShum/noderoom</text>
    <rect x="24" y="70" width="244" height="626" fill="#0d1014"/>
    <text x="42" y="100" fill="#ffb195" font-size="12" font-weight="800">EXPLORER</text>
    <text x="48" y="128" fill="#aab3be" font-size="12">src</text>
<text x="48" y="152" fill="#aab3be" font-size="12">  - ui</text>
<text x="48" y="176" fill="#aab3be" font-size="12">    - panels</text>
<rect x="36" y="183" width="210" height="24" rx="6" fill="rgba(232,120,85,0.18)" stroke="rgba(232,120,85,0.48)"/><text x="48" y="200" fill="#ffb195" font-size="12">      - TraceSurface.tsx</text>
    <rect x="268" y="70" width="908" height="626" fill="#0d1117"/>
    <rect x="288" y="88" width="360" height="28" rx="8" fill="#171b21" stroke="#333b46"/>
    <text x="304" y="107" fill="#f2f4f7" font-size="12" font-weight="700">src/ui/panels/TraceSurface.tsx</text>
    <text x="982" y="107" fill="#99a3ae" font-size="11">lines 15-47</text>
    <rect x="284" y="128" width="34" height="520" fill="#0b0f14"/>
    <rect x="340" y="128" width="2" height="520" fill="#252b33"/>
    <rect x="344" y="103" width="806" height="18" rx="4" fill="rgba(232,120,85,0.16)"/><text x="292" y="116" fill="#76808c" font-size="12">  15</text><text x="352" y="116" fill="#e5eaf0" font-size="12">type DetailTab = &quot;overview&quot; | &quot;steps&quot; | &quot;flow&quot; | &quot;evidence&quot; | &quot;raw&quot;;</text>
<rect x="344" y="121" width="806" height="18" rx="4" fill="rgba(232,120,85,0.16)"/><text x="292" y="134" fill="#76808c" font-size="12">  16</text><text x="352" y="134" fill="#e5eaf0" font-size="12"> </text>
<rect x="344" y="139" width="806" height="18" rx="4" fill="rgba(232,120,85,0.16)"/><text x="292" y="152" fill="#76808c" font-size="12">  17</text><text x="352" y="152" fill="#e5eaf0" font-size="12">/** Capture a source into the Trace tab. Two lanes: Web (Firecrawl screenshot + extract) and SEC</text>
<rect x="344" y="157" width="806" height="18" rx="4" fill="rgba(232,120,85,0.16)"/><text x="292" y="170" fill="#76808c" font-size="12">  18</text><text x="352" y="170" fill="#e5eaf0" font-size="12"> *  (EDGAR data API — authoritative facts by ticker/concept). The persisted record joins the list.</text>
<rect x="344" y="175" width="806" height="18" rx="4" fill="rgba(232,120,85,0.16)"/><text x="292" y="188" fill="#76808c" font-size="12">  19</text><text x="352" y="188" fill="#e5eaf0" font-size="12">function CaptureForm({ roomId, onCapture, onSec }: {</text>
<rect x="344" y="193" width="806" height="18" rx="4" fill="rgba(232,120,85,0.16)"/><text x="292" y="206" fill="#76808c" font-size="12">  20</text><text x="352" y="206" fill="#e5eaf0" font-size="12">  roomId: string;</text>
<rect x="344" y="211" width="806" height="18" rx="4" fill="rgba(232,120,85,0.16)"/><text x="292" y="224" fill="#76808c" font-size="12">  21</text><text x="352" y="224" fill="#e5eaf0" font-size="12">  onCapture: (roomId: string, url: string, goal: string) =&gt; Promise&lt;{ ok: boolean; error?: string </text>
<text x="292" y="242" fill="#76808c" font-size="12">  22</text><text x="352" y="242" fill="#e5eaf0" font-size="12">  onSec: (roomId: string, company: string, concept: string) =&gt; Promise&lt;{ ok: boolean; error?: stri</text>
<text x="292" y="260" fill="#76808c" font-size="12">  23</text><text x="352" y="260" fill="#e5eaf0" font-size="12">}) {</text>
<text x="292" y="278" fill="#76808c" font-size="12">  24</text><text x="352" y="278" fill="#e5eaf0" font-size="12">  const [mode, setMode] = useState&lt;&quot;web&quot; | &quot;sec&quot;&gt;(&quot;web&quot;);</text>
<text x="292" y="296" fill="#76808c" font-size="12">  25</text><text x="352" y="296" fill="#e5eaf0" font-size="12">  const [url, setUrl] = useState(&quot;&quot;);</text>
<text x="292" y="314" fill="#76808c" font-size="12">  26</text><text x="352" y="314" fill="#e5eaf0" font-size="12">  const [goal, setGoal] = useState(&quot;&quot;);</text>
<text x="292" y="332" fill="#76808c" font-size="12">  27</text><text x="352" y="332" fill="#e5eaf0" font-size="12">  const [company, setCompany] = useState(&quot;&quot;);</text>
<text x="292" y="350" fill="#76808c" font-size="12">  28</text><text x="352" y="350" fill="#e5eaf0" font-size="12">  const [concept, setConcept] = useState(&quot;&quot;);</text>
<text x="292" y="368" fill="#76808c" font-size="12">  29</text><text x="352" y="368" fill="#e5eaf0" font-size="12">  const [busy, setBusy] = useState(false);</text>
<text x="292" y="386" fill="#76808c" font-size="12">  30</text><text x="352" y="386" fill="#e5eaf0" font-size="12">  const [err, setErr] = useState&lt;string | null&gt;(null);</text>
<text x="292" y="404" fill="#76808c" font-size="12">  31</text><text x="352" y="404" fill="#e5eaf0" font-size="12">  const submit = async (e: FormEvent) =&gt; {</text>
<text x="292" y="422" fill="#76808c" font-size="12">  32</text><text x="352" y="422" fill="#e5eaf0" font-size="12">    e.preventDefault();</text>
<text x="292" y="440" fill="#76808c" font-size="12">  33</text><text x="352" y="440" fill="#e5eaf0" font-size="12">    if (busy) return;</text>
<text x="292" y="458" fill="#76808c" font-size="12">  34</text><text x="352" y="458" fill="#e5eaf0" font-size="12">    const ready = mode === &quot;web&quot; ? url.trim() : company.trim();</text>
<text x="292" y="476" fill="#76808c" font-size="12">  35</text><text x="352" y="476" fill="#e5eaf0" font-size="12">    if (!ready) { setErr(&quot;enter a &quot; + (mode === &quot;web&quot; ? &quot;URL&quot; : &quot;ticker&quot;)); return; }</text>
<text x="292" y="494" fill="#76808c" font-size="12">  36</text><text x="352" y="494" fill="#e5eaf0" font-size="12">    setBusy(true); setErr(null);</text>
<text x="292" y="512" fill="#76808c" font-size="12">  37</text><text x="352" y="512" fill="#e5eaf0" font-size="12">    try {</text>
<text x="292" y="530" fill="#76808c" font-size="12">  38</text><text x="352" y="530" fill="#e5eaf0" font-size="12">      const r = mode === &quot;web&quot;</text>
    <rect x="1060" y="142" width="68" height="360" rx="6" fill="#111820" stroke="#252b33"/>
    <rect x="1072" y="162" width="44" height="112" rx="4" fill="rgba(232,120,85,0.32)"/>
    <text x="292" y="676" fill="#7cc7ff" font-size="12">Exact source slice from src/ui/panels/TraceSurface.tsx. Generated by NodeTrace; no editor automation required.</text>
  
</svg>
