<svg xmlns="http://www.w3.org/2000/svg" width="1200" height="720" viewBox="0 0 1200 720" role="img">
<style>text{font-family:Inter,Segoe UI,Arial,sans-serif}.mono{font-family:Consolas,Menlo,monospace}</style>

    <rect width="1200" height="720" rx="24" fill="#0b0f14"/>
    <rect x="24" y="24" width="1152" height="672" rx="18" fill="#101317" stroke="#2b333d"/>
    <rect x="24" y="24" width="1152" height="46" rx="18" fill="#171b21"/>
    <circle cx="52" cy="47" r="6" fill="#e87855"/><circle cx="72" cy="47" r="6" fill="#e5b567"/><circle cx="92" cy="47" r="6" fill="#78d39f"/>
    <text x="120" y="52" fill="#f2f4f7" font-size="14" font-weight="700">Visual Studio Code recomposition - HomenShum/noderoom</text>
    <rect x="24" y="70" width="244" height="626" fill="#0d1014"/>
    <text x="42" y="100" fill="#ffb195" font-size="12" font-weight="800">EXPLORER</text>
    <text x="48" y="128" fill="#aab3be" font-size="12">src</text>
<text x="48" y="152" fill="#aab3be" font-size="12">  - app</text>
<rect x="36" y="159" width="210" height="24" rx="6" fill="rgba(232,120,85,0.18)" stroke="rgba(232,120,85,0.48)"/><text x="48" y="176" fill="#ffb195" font-size="12">    - styles.css</text>
    <rect x="268" y="70" width="908" height="626" fill="#0d1117"/>
    <rect x="288" y="88" width="360" height="28" rx="8" fill="#171b21" stroke="#333b46"/>
    <text x="304" y="107" fill="#f2f4f7" font-size="12" font-weight="700">src/app/styles.css</text>
    <text x="982" y="107" fill="#99a3ae" font-size="11">lines 869-925</text>
    <rect x="284" y="128" width="34" height="520" fill="#0b0f14"/>
    <rect x="340" y="128" width="2" height="520" fill="#252b33"/>
    <rect x="344" y="103" width="806" height="18" rx="4" fill="rgba(232,120,85,0.16)"/><text x="292" y="116" fill="#76808c" font-size="12"> 869</text><text x="352" y="116" fill="#e5eaf0" font-size="12">.r-tracevu-rec-head { display: flex; align-items: center; gap: 6px; min-width: 0; }</text>
<rect x="344" y="121" width="806" height="18" rx="4" fill="rgba(232,120,85,0.16)"/><text x="292" y="134" fill="#76808c" font-size="12"> 870</text><text x="352" y="134" fill="#e5eaf0" font-size="12">.r-tracevu-rec-title { min-width: 0; overflow: hidden; text-overflow: ellipsis; white-space: nowra</text>
<rect x="344" y="139" width="806" height="18" rx="4" fill="rgba(232,120,85,0.16)"/><text x="292" y="152" fill="#76808c" font-size="12"> 871</text><text x="352" y="152" fill="#e5eaf0" font-size="12">.r-tracevu-rec-sub { font-size: 11px; line-height: 1.35; color: var(--text-muted); display: -webki</text>
<rect x="344" y="157" width="806" height="18" rx="4" fill="rgba(232,120,85,0.16)"/><text x="292" y="170" fill="#76808c" font-size="12"> 872</text><text x="352" y="170" fill="#e5eaf0" font-size="12">.r-tracevu-rec-meta { font-size: 10px; color: var(--text-tertiary); font-family: var(--font-mono);</text>
<rect x="344" y="175" width="806" height="18" rx="4" fill="rgba(232,120,85,0.16)"/><text x="292" y="188" fill="#76808c" font-size="12"> 873</text><text x="352" y="188" fill="#e5eaf0" font-size="12">.r-tracevu-pill { flex: none; margin-left: auto; padding: 1px 6px; border-radius: 999px; font-size</text>
<rect x="344" y="193" width="806" height="18" rx="4" fill="rgba(232,120,85,0.16)"/><text x="292" y="206" fill="#76808c" font-size="12"> 874</text><text x="352" y="206" fill="#e5eaf0" font-size="12">.r-tracevu-pill[data-tone=&quot;ok&quot;] { background: color-mix(in srgb, var(--success) 18%, transparent);</text>
<rect x="344" y="211" width="806" height="18" rx="4" fill="rgba(232,120,85,0.16)"/><text x="292" y="224" fill="#76808c" font-size="12"> 875</text><text x="352" y="224" fill="#e5eaf0" font-size="12">.r-tracevu-pill[data-tone=&quot;warn&quot;] { background: var(--warning-tint); color: var(--warning-ink); }</text>
<text x="292" y="242" fill="#76808c" font-size="12"> 876</text><text x="352" y="242" fill="#e5eaf0" font-size="12">.r-tracevu-pill[data-tone=&quot;risk&quot;] { background: var(--danger-tint); color: var(--danger-ink); }</text>
<text x="292" y="260" fill="#76808c" font-size="12"> 877</text><text x="352" y="260" fill="#e5eaf0" font-size="12">.r-tracevu-detail { flex: 1; min-width: 0; min-height: 0; display: flex; flex-direction: column; o</text>
<text x="292" y="278" fill="#76808c" font-size="12"> 878</text><text x="352" y="278" fill="#e5eaf0" font-size="12">.r-tracevu-detail-head { flex: none; padding: 14px 16px 0; border-bottom: 1px solid var(--line); }</text>
<text x="292" y="296" fill="#76808c" font-size="12"> 879</text><text x="352" y="296" fill="#e5eaf0" font-size="12">.r-tracevu-detail-head strong { font-size: 15px; color: var(--text-primary); }</text>
<text x="292" y="314" fill="#76808c" font-size="12"> 880</text><text x="352" y="314" fill="#e5eaf0" font-size="12">.r-tracevu-detail-head p { margin: 3px 0 10px; font-size: 12px; color: var(--text-muted); line-hei</text>
<text x="292" y="332" fill="#76808c" font-size="12"> 881</text><text x="352" y="332" fill="#e5eaf0" font-size="12">.r-tracevu-tabs { display: flex; gap: 2px; }</text>
<text x="292" y="350" fill="#76808c" font-size="12"> 882</text><text x="352" y="350" fill="#e5eaf0" font-size="12">.r-tracevu-tabs button { padding: 6px 11px; border: 0; border-bottom: 2px solid transparent; backg</text>
<text x="292" y="368" fill="#76808c" font-size="12"> 883</text><text x="352" y="368" fill="#e5eaf0" font-size="12">.r-tracevu-tabs button[data-on=&quot;true&quot;] { color: var(--accent-ink); border-bottom-color: var(--acce</text>
<text x="292" y="386" fill="#76808c" font-size="12"> 884</text><text x="352" y="386" fill="#e5eaf0" font-size="12">.r-tracevu-tabs button:not([data-on=&quot;true&quot;]):hover { color: var(--text-secondary); }</text>
<text x="292" y="404" fill="#76808c" font-size="12"> 885</text><text x="352" y="404" fill="#e5eaf0" font-size="12">.r-tracevu-detail-body { flex: 1; min-height: 0; overflow-y: auto; padding: 16px; }</text>
<text x="292" y="422" fill="#76808c" font-size="12"> 886</text><text x="352" y="422" fill="#e5eaf0" font-size="12">.r-tracevu-overview { display: flex; flex-direction: column; gap: 18px; }</text>
<text x="292" y="440" fill="#76808c" font-size="12"> 887</text><text x="352" y="440" fill="#e5eaf0" font-size="12">.r-tracevu-facts { display: grid; grid-template-columns: repeat(auto-fit, minmax(220px, 1fr)); gap</text>
<text x="292" y="458" fill="#76808c" font-size="12"> 888</text><text x="352" y="458" fill="#e5eaf0" font-size="12">.r-tracevu-facts .kicker { display: inline-flex; align-items: center; gap: 5px; margin-bottom: 8px</text>
<text x="292" y="476" fill="#76808c" font-size="12"> 889</text><text x="352" y="476" fill="#e5eaf0" font-size="12">.r-tracevu-facts dl { display: grid; grid-template-columns: auto 1fr; gap: 6px 16px; margin: 0; fo</text>
<text x="292" y="494" fill="#76808c" font-size="12"> 890</text><text x="352" y="494" fill="#e5eaf0" font-size="12">.r-tracevu-facts dt { color: var(--text-muted); }</text>
<text x="292" y="512" fill="#76808c" font-size="12"> 891</text><text x="352" y="512" fill="#e5eaf0" font-size="12">.r-tracevu-facts dd { margin: 0; color: var(--text-primary); font-family: var(--font-mono); font-s</text>
<text x="292" y="530" fill="#76808c" font-size="12"> 892</text><text x="352" y="530" fill="#e5eaf0" font-size="12">.r-tracevu-verdict { display: inline-block; font-size: 12px; font-weight: 700; color: var(--text-p</text>
    <rect x="1060" y="142" width="68" height="360" rx="6" fill="#111820" stroke="#252b33"/>
    <rect x="1072" y="162" width="44" height="112" rx="4" fill="rgba(232,120,85,0.32)"/>
    <text x="292" y="676" fill="#7cc7ff" font-size="12">Exact source slice from src/app/styles.css. Generated by NodeTrace; no editor automation required.</text>
  
</svg>
