<svg xmlns="http://www.w3.org/2000/svg" width="1200" height="720" viewBox="0 0 1200 720" role="img">
<style>text{font-family:Inter,Segoe UI,Arial,sans-serif}.mono{font-family:Consolas,Menlo,monospace}</style>

    <rect width="1200" height="720" rx="24" fill="#0b0f14"/>
    <rect x="24" y="24" width="1152" height="672" rx="18" fill="#101317" stroke="#2b333d"/>
    <rect x="24" y="24" width="1152" height="46" rx="18" fill="#171b21"/>
    <circle cx="52" cy="47" r="6" fill="#e87855"/><circle cx="72" cy="47" r="6" fill="#e5b567"/><circle cx="92" cy="47" r="6" fill="#78d39f"/>
    <text x="120" y="52" fill="#f2f4f7" font-size="14" font-weight="700">Visual Studio Code recomposition - HomenShum/noderoom</text>
    <rect x="24" y="70" width="244" height="626" fill="#0d1014"/>
    <text x="42" y="100" fill="#ffb195" font-size="12" font-weight="800">EXPLORER</text>
    <text x="48" y="128" fill="#aab3be" font-size="12">src</text>
<text x="48" y="152" fill="#aab3be" font-size="12">  - ui</text>
<text x="48" y="176" fill="#aab3be" font-size="12">    - panels</text>
<rect x="36" y="183" width="210" height="24" rx="6" fill="rgba(232,120,85,0.18)" stroke="rgba(232,120,85,0.48)"/><text x="48" y="200" fill="#ffb195" font-size="12">      - Artifact.tsx</text>
    <rect x="268" y="70" width="908" height="626" fill="#0d1117"/>
    <rect x="288" y="88" width="360" height="28" rx="8" fill="#171b21" stroke="#333b46"/>
    <text x="304" y="107" fill="#f2f4f7" font-size="12" font-weight="700">src/ui/panels/Artifact.tsx</text>
    <text x="982" y="107" fill="#99a3ae" font-size="11">lines 1655-1681</text>
    <rect x="284" y="128" width="34" height="520" fill="#0b0f14"/>
    <rect x="340" y="128" width="2" height="520" fill="#252b33"/>
    <rect x="344" y="103" width="806" height="18" rx="4" fill="rgba(232,120,85,0.16)"/><text x="292" y="116" fill="#76808c" font-size="12">1655</text><text x="352" y="116" fill="#e5eaf0" font-size="12">  useEffect(() =&gt; { const el = ref.current; if (el &amp;&amp; nearBottom.current) el.scrollTop = el.scroll</text>
<rect x="344" y="121" width="806" height="18" rx="4" fill="rgba(232,120,85,0.16)"/><text x="292" y="134" fill="#76808c" font-size="12">1656</text><text x="352" y="134" fill="#e5eaf0" font-size="12">  const onScroll = () =&gt; { const el = ref.current; if (el) nearBottom.current = el.scrollHeight - </text>
<rect x="344" y="139" width="806" height="18" rx="4" fill="rgba(232,120,85,0.16)"/><text x="292" y="152" fill="#76808c" font-size="12">1657</text><text x="352" y="152" fill="#e5eaf0" font-size="12">  const shown = log.slice(-40);</text>
<rect x="344" y="157" width="806" height="18" rx="4" fill="rgba(232,120,85,0.16)"/><text x="292" y="170" fill="#76808c" font-size="12">1658</text><text x="352" y="170" fill="#e5eaf0" font-size="12">  // The trace is a LOG, not the work surface. Collapse it by default so the artifact (the spreads</text>
<rect x="344" y="175" width="806" height="18" rx="4" fill="rgba(232,120,85,0.16)"/><text x="292" y="188" fill="#76808c" font-size="12">1659</text><text x="352" y="188" fill="#e5eaf0" font-size="12">  // reclaims the ~300px this strip otherwise holds -- the contract says the work surface carries </text>
<rect x="344" y="193" width="806" height="18" rx="4" fill="rgba(232,120,85,0.16)"/><text x="292" y="206" fill="#76808c" font-size="12">1660</text><text x="352" y="206" fill="#e5eaf0" font-size="12">  // Auto-expand only when proposals are pending, since that is actionable review the host must no</text>
<rect x="344" y="211" width="806" height="18" rx="4" fill="rgba(232,120,85,0.16)"/><text x="292" y="224" fill="#76808c" font-size="12">1661</text><text x="352" y="224" fill="#e5eaf0" font-size="12">  const open = openOverride ?? proposals.length &gt; 0;</text>
<text x="292" y="242" fill="#76808c" font-size="12">1662</text><text x="352" y="242" fill="#e5eaf0" font-size="12">  return (</text>
<text x="292" y="260" fill="#76808c" font-size="12">1663</text><text x="352" y="260" fill="#e5eaf0" font-size="12">    &lt;div className=&quot;r-trace&quot; data-testid=&quot;room-trace&quot; data-open={String(open)} data-noderoom-surfa</text>
<text x="292" y="278" fill="#76808c" font-size="12">1664</text><text x="352" y="278" fill="#e5eaf0" font-size="12">      &lt;div className=&quot;r-trace-head&quot;&gt;</text>
<text x="292" y="296" fill="#76808c" font-size="12">1665</text><text x="352" y="296" fill="#e5eaf0" font-size="12">        &lt;button</text>
<text x="292" y="314" fill="#76808c" font-size="12">1666</text><text x="352" y="314" fill="#e5eaf0" font-size="12">          type=&quot;button&quot;</text>
<text x="292" y="332" fill="#76808c" font-size="12">1667</text><text x="352" y="332" fill="#e5eaf0" font-size="12">          className=&quot;r-trace-toggle&quot;</text>
<text x="292" y="350" fill="#76808c" font-size="12">1668</text><text x="352" y="350" fill="#e5eaf0" font-size="12">          aria-expanded={open}</text>
<text x="292" y="368" fill="#76808c" font-size="12">1669</text><text x="352" y="368" fill="#e5eaf0" font-size="12">          aria-label={open ? &quot;Collapse room trace&quot; : &quot;Expand room trace&quot;}</text>
<text x="292" y="386" fill="#76808c" font-size="12">1670</text><text x="352" y="386" fill="#e5eaf0" font-size="12">          onClick={() =&gt; setOpenOverride(!open)}</text>
<text x="292" y="404" fill="#76808c" font-size="12">1671</text><text x="352" y="404" fill="#e5eaf0" font-size="12">        &gt;</text>
<text x="292" y="422" fill="#76808c" font-size="12">1672</text><text x="352" y="422" fill="#e5eaf0" font-size="12">          &lt;ChevronRight size={13} className=&quot;r-trace-chev&quot; style={{ transform: open ? &quot;rotate(90de</text>
<text x="292" y="440" fill="#76808c" font-size="12">1673</text><text x="352" y="440" fill="#e5eaf0" font-size="12">          &lt;History size={14} style={{ color: &quot;var(--text-muted)&quot; }} /&gt;</text>
<text x="292" y="458" fill="#76808c" font-size="12">1674</text><text x="352" y="458" fill="#e5eaf0" font-size="12">          &lt;span className=&quot;h-title&quot; style={{ fontSize: 12.5 }}&gt;Room trace&lt;/span&gt;</text>
<text x="292" y="476" fill="#76808c" font-size="12">1675</text><text x="352" y="476" fill="#e5eaf0" font-size="12">          &lt;span className=&quot;mono tiny faint&quot;&gt;{log.length} events&lt;/span&gt;</text>
<text x="292" y="494" fill="#76808c" font-size="12">1676</text><text x="352" y="494" fill="#e5eaf0" font-size="12">          {!open &amp;&amp; proposals.length &gt; 0 &amp;&amp; &lt;span className=&quot;r-trace-badge&quot;&gt;{proposals.length} to </text>
<text x="292" y="512" fill="#76808c" font-size="12">1677</text><text x="352" y="512" fill="#e5eaf0" font-size="12">        &lt;/button&gt;</text>
<text x="292" y="530" fill="#76808c" font-size="12">1678</text><text x="352" y="530" fill="#e5eaf0" font-size="12">        &lt;span className=&quot;grow&quot; /&gt;</text>
    <rect x="1060" y="142" width="68" height="360" rx="6" fill="#111820" stroke="#252b33"/>
    <rect x="1072" y="162" width="44" height="112" rx="4" fill="rgba(232,120,85,0.32)"/>
    <text x="292" y="676" fill="#7cc7ff" font-size="12">Exact source slice from src/ui/panels/Artifact.tsx. Generated by NodeTrace; no editor automation required.</text>
  
</svg>
